<?xml version="1.0" encoding="UTF-8" standalone="no"?>
<!-- Created with Inkscape (http://www.inkscape.org/) -->

<svg
   version="1.1"
   id="svg148"
   width="680.3147"
   height="604.724"
   viewBox="0 0 680.3147 604.724"
   sodipodi:docname="logo.svg"
   inkscape:version="1.2.2 (b0a8486541, 2022-12-01)"
   xmlns:inkscape="http://www.inkscape.org/namespaces/inkscape"
   xmlns:sodipodi="http://sodipodi.sourceforge.net/DTD/sodipodi-0.dtd"
   xmlns="http://www.w3.org/2000/svg"
   xmlns:svg="http://www.w3.org/2000/svg">
  <defs
     id="defs152">
    <clipPath
       clipPathUnits="userSpaceOnUse"
       id="clipPath164">
      <path
         d="M 0,0 H 510.236 V 453.543 H 0 Z"
         id="path162" />
    </clipPath>
    <clipPath
       clipPathUnits="userSpaceOnUse"
       id="clipPath200">
      <path
         d="M 0,0 H 510.236 V 453.543 H 0 Z"
         id="path198" />
    </clipPath>
    <clipPath
       clipPathUnits="userSpaceOnUse"
       id="clipPath214">
      <path
         d="M 0,0 H 510.236 V 453.543 H 0 Z"
         id="path212" />
    </clipPath>
  </defs>
  <sodipodi:namedview
     id="namedview150"
     pagecolor="#ffffff"
     bordercolor="#000000"
     borderopacity="0.25"
     inkscape:showpageshadow="2"
     inkscape:pageopacity="0.0"
     inkscape:pagecheckerboard="0"
     inkscape:deskcolor="#d1d1d1"
     showgrid="false"
     inkscape:zoom="1.9231914"
     inkscape:cx="340.31974"
     inkscape:cy="302.362"
     inkscape:window-width="2494"
     inkscape:window-height="1361"
     inkscape:window-x="66"
     inkscape:window-y="40"
     inkscape:window-maximized="1"
     inkscape:current-layer="g156">
    <inkscape:page
       x="0"
       y="0"
       id="page154"
       width="680.3147"
       height="604.724" />
  </sodipodi:namedview>
  <g
     id="g156"
     inkscape:groupmode="layer"
     inkscape:label="Page 1"
     transform="matrix(1.3333333,0,0,-1.3333333,0,604.724)">
    <g
       id="g158">
      <g
         id="g160"
         clip-path="url(#clipPath164)">
        <g
           id="g166"
           transform="translate(249.5695,438.511)">
          <path
             d="m 0,0 c -89,19.351 -192.986,-9.738 -228.765,-113.385 -50.63,-209.04 108.469,-245.217 145.851,-256.79"
             style="fill:none;stroke:#3673c0;stroke-width:15.524;stroke-linecap:round;stroke-linejoin:miter;stroke-miterlimit:10;stroke-dasharray:none;stroke-opacity:1"
             id="path168" />
        </g>
        <g
           id="g170"
           transform="translate(363.015,355.3655)">
          <path
             d="m 0,0 c 162.417,-24.5 134.432,-201.531 134.432,-201.531 0,0 -11.219,-69.697 -69.396,-109.456 -68.837,-47.25 -177.848,-49.251 -256.856,18.957"
             style="fill:none;stroke:#f7e91a;stroke-width:15.524;stroke-linecap:butt;stroke-linejoin:miter;stroke-miterlimit:10;stroke-dasharray:none;stroke-opacity:1"
             id="path172" />
        </g>
        <g
           id="g174"
           transform="translate(363.5553,353.9207)">
          <path
             d="m 0,0 c 0,0 -33.669,66.267 -113.986,84.59 -89,19.352 -192.986,-9.737 -228.764,-113.384"
             style="fill:none;stroke:#3673c0;stroke-width:15.524;stroke-linecap:round;stroke-linejoin:miter;stroke-miterlimit:10;stroke-dasharray:none;stroke-opacity:1"
             id="path176" />
        </g>
        <g
           id="g178"
           transform="translate(168.8589,74.45)">
          <path
             d="M 0,0 C 0,0 4.626,18.037 40.14,67.893"
             style="fill:none;stroke:#38b850;stroke-width:7.772;stroke-linecap:round;stroke-linejoin:round;stroke-miterlimit:4;stroke-dasharray:none;stroke-opacity:1"
             id="path180" />
        </g>
      </g>
    </g>
    <g
       id="g182"
       transform="translate(308.3044,293.4781)">
      <path
         d="M 0,0 34.359,8.061"
         style="fill:none;stroke:#38b850;stroke-width:7.772;stroke-linecap:round;stroke-linejoin:round;stroke-miterlimit:4;stroke-dasharray:none;stroke-opacity:1"
         id="path184" />
    </g>
    <g
       id="g186"
       transform="translate(180.2941,98.3387)">
      <path
         d="M 0,0 -27.277,55.296"
         style="fill:none;stroke:#38b850;stroke-width:7.772;stroke-linecap:round;stroke-linejoin:round;stroke-miterlimit:4;stroke-dasharray:none;stroke-opacity:1"
         id="path188" />
    </g>
    <g
       id="g190"
       transform="translate(180.294,97.0287)">
      <path
         d="M 0,0 103.913,38.114"
         style="fill:none;stroke:#38b850;stroke-width:7.772;stroke-linecap:round;stroke-linejoin:round;stroke-miterlimit:4;stroke-dasharray:none;stroke-opacity:1"
         id="path192" />
    </g>
    <g
       id="g194">
      <g
         id="g196"
         clip-path="url(#clipPath200)">
        <g
           id="g202"
           transform="translate(281.6133,261.7339)">
          <path
             d="M 0,0 C 18.309,23.664 37.471,44.908 61.859,71.292"
             style="fill:none;stroke:#38b850;stroke-width:7.772;stroke-linecap:round;stroke-linejoin:round;stroke-miterlimit:4;stroke-dasharray:none;stroke-opacity:1"
             id="path204" />
        </g>
      </g>
    </g>
    <g
       id="g206"
       transform="translate(384.8962,259.6291)" />
    <g
       id="g208">
      <g
         id="g210"
         clip-path="url(#clipPath214)">
        <g
           id="g216"
           transform="translate(65.2252,256.2314)">
          <path
             d="M 0,0 H 34.938 V -89.029 H 57.816 V 0 H 92.931 V 19.863 H 0 Z m 156.381,-89.029 v 50.544 c 0,18.977 -12.237,30.504 -33.342,30.504 -18.089,0 -31.036,-10.995 -33.341,-25.361 h 20.927 c 1.773,4.612 5.498,7.449 11.705,7.449 8.867,0 12.946,-5.498 12.946,-12.237 v -5.852 c -3.192,2.305 -11.173,4.611 -18.089,4.611 -17.203,0 -30.682,-10.287 -30.682,-25.361 0,-16.494 13.479,-25.716 29.44,-25.716 8.69,0 16.671,3.015 19.331,5.675 v -4.256 z m -21.105,21.636 c -1.951,-4.256 -7.98,-6.916 -14.365,-6.916 -6.917,0 -14.011,2.837 -14.011,9.754 0,6.739 7.094,9.754 14.011,9.754 6.385,0 12.414,-2.66 14.365,-6.916 z m 57.239,93.641 H 170.524 V -89.029 h 21.991 z m 63.624,-89.384 c -1.773,-6.739 -7.271,-9.932 -14.72,-9.932 -9.754,0 -16.493,7.094 -17.203,18.977 h 52.85 v 6.739 c 0,23.233 -12.769,39.371 -36.001,39.371 -22.169,0 -38.13,-17.557 -38.13,-41.499 0,-24.474 15.429,-41.323 38.484,-41.323 19.863,0 32.278,10.819 35.115,27.667 z m -14.897,37.243 c 9.045,0 14.011,-6.562 14.188,-14.897 h -30.681 c 1.95,9.754 7.98,14.897 16.493,14.897 m 111.33,-63.136 v 50.544 c 0,18.977 -12.237,30.504 -33.342,30.504 -18.089,0 -31.036,-10.995 -33.341,-25.361 h 20.927 c 1.773,4.612 5.498,7.449 11.705,7.449 8.867,0 12.946,-5.498 12.946,-12.237 v -5.852 c -3.192,2.305 -11.173,4.611 -18.089,4.611 -17.203,0 -30.682,-10.287 -30.682,-25.361 0,-16.494 13.479,-25.716 29.44,-25.716 8.69,0 16.671,3.015 19.331,5.675 v -4.256 z m -21.105,21.636 c -1.951,-4.256 -7.98,-6.916 -14.365,-6.916 -6.917,0 -14.011,2.837 -14.011,9.754 0,6.739 7.094,9.754 14.011,9.754 6.385,0 12.414,-2.66 14.365,-6.916 z"
             style="fill:#17361c;fill-opacity:1;fill-rule:nonzero;stroke:none"
             id="path218" />
        </g>
        <g
           id="g220"
           transform="translate(391.3435,273.1924)">
          <path
             d="M 0,0 C -1.506,20.692 -10.774,56.532 -28.729,82.473 -61.132,91.474 -224.688,99.975 -270.313,24.536"
             style="fill:none;stroke:#38b850;stroke-width:15.524;stroke-linecap:round;stroke-linejoin:miter;stroke-miterlimit:10;stroke-dasharray:none;stroke-opacity:1"
             id="path222" />
        </g>
        <g
           id="g224"
           transform="translate(162.7085,61.4033)">
          <path
             d="m 0,0 -2.435,5.732 13.042,-3.281 -1.2,-4.88 c 0,0 -4.258,-3.342 -5.993,-1.531 C 1.68,-2.149 0,0 0,0"
             style="fill:#f7e91a;fill-opacity:1;fill-rule:nonzero;stroke:none"
             id="path226" />
        </g>
        <g
           id="g228"
           transform="translate(112.2371,144.0049)">
          <path
             d="m 0,0 c 12.953,-31.365 21.334,-46.706 53.637,-75.109 146.252,-14.602 207.342,60.246 215.43,73.392"
             style="fill:none;stroke:#38b850;stroke-width:15.524;stroke-linecap:round;stroke-linejoin:miter;stroke-miterlimit:10;stroke-dasharray:none;stroke-opacity:1"
             id="path230" />
        </g>
      </g>
    </g>
    <g
       id="g232"
       transform="translate(308.3042,326.9795)">
      <path
         d="M 0,0 V -32.463"
         style="fill:none;stroke:#38b850;stroke-width:7.772;stroke-linecap:round;stroke-linejoin:miter;stroke-miterlimit:4;stroke-dasharray:none;stroke-opacity:1"
         id="path234" />
    </g>
    <g
       id="g236"
       transform="translate(60.6141,395.9052)" />
    <g
       id="g238"
       transform="translate(212.8814,311.8008)">
      <path
         d="M 0,0 1.2,-28.836"
         style="fill:none;stroke:#38b850;stroke-width:7.772;stroke-linecap:round;stroke-linejoin:round;stroke-miterlimit:4;stroke-dasharray:none;stroke-opacity:1"
         id="path240" />
    </g>
  </g>
</svg>
